<mxfile host="app.diagrams.net" modified="2024-02-28T01:30:19.426Z" agent="Mozilla/5.0 (Macintosh; Intel Mac OS X 10_15_7) AppleWebKit/537.36 (KHTML, like Gecko) Chrome/120.0.0.0 Safari/537.36" version="23.1.1" etag="itYJzFN9SChhR9U_Ye3_" type="github">
  <diagram name="第 1 页" id="gt_kRar38Ba8sfX-47WE">
    <mxGraphModel>
      <root>
        <mxCell id="0" />
        <mxCell id="1" parent="0" />
      </root>
    </mxGraphModel>
  </diagram>
</mxfile>
